Le Leccaculi - The licker

Cover: 
http://imagebb.org/view.php?filename=4630vv75lo.jpg

Preview: 
http://imagebb.org/view.php?filename=866Le_Leccaculi_s.jpg

Info:
Format                           : AVI
Format/Info                      : Audio Video Interleave
File size                        : 884 MiB
Duration                         : 1h 15mn
Overall bit rate                 : 1 638 Kbps
Writing library                  : VirtualDub build 32817/release

Video
ID                               : 0
Format                           : MPEG-4 Visual
Format settings, BVOP            : 1
Format settings, QPel            : No
Format settings, GMC             : No warppoints
Format settings, Matrix          : Default (H.263)
Muxing mode                      : Packed bitstream
Codec ID                         : DX50
Codec ID/Hint                    : DivX 5
Duration                         : 1h 15mn
Bit rate                         : 1 500 Kbps
Width                            : 720 pixels
Height                           : 576 pixels
Display aspect ratio             : 4:3
Frame rate                       : 25.000 fps
Standard                         : PAL
Color space                      : YUV
Chroma subsampling               : 4:2:0
Bit depth                        : 8 bits
Scan type                        : Progressive
Compression mode                 : Lossy
Bits/(Pixel*Frame)               : 0.145
Stream size                      : 810 MiB (92%)
Writing library                  : DivX 6.6.1.4

Audio
ID                               : 1
Format                           : MPEG Audio
Format version                   : Version 1
Format profile                   : Layer 3
Codec ID                         : 55
Codec ID/Hint                    : MP3
Duration                         : 1h 15mn
Bit rate mode                    : Constant
Bit rate                         : 128 Kbps
Channel(s)                       : 2 channels
Sampling rate                    : 48.0 KHz
Compression mode                 : Lossy
Stream size                      : 69.1 MiB (8%)
Alignment                        : Split accross interleaves
Interleave, duration             : 40 ms (1.00 video frame)
Interleave, preload duration     : 500 ms